HIERARCHY
ROOT Hips
{
	OFFSET -3.958830 18.904000 13.208200
	CHANNELS 6 Xposition Yposition Zposition Zrotation Yrotation Xrotation 
	JOINT LHipJoint
	{
		OFFSET 0.000000 0.000000 0.000000
		CHANNELS 3 Zrotation Yrotation Xrotation
		JOINT LeftUpLeg
		{
			OFFSET 1.800000 -1.400000 0.085000
			CHANNELS 3 Zrotation Yrotation Xrotation
			JOINT LeftLeg
			{
				OFFSET 2.215000 -6.000000 0.000000
				CHANNELS 3 Zrotation Yrotation Xrotation
				JOINT LeftFoot
				{
					OFFSET 2.500000 -6.900000 0.000000
					CHANNELS 3 Zrotation Yrotation Xrotation
					JOINT LeftToeBase
					{
						OFFSET 0.200000 -0.500000 1.950000
						CHANNELS 3 Zrotation Yrotation Xrotation
						End Site
						{
							OFFSET 0.000000 0.000000 0.000000
						}
					}
				}
			}
		}
	}
	JOINT RHipJoint
	{
		OFFSET 0.000000 0.000000 0.000000
		CHANNELS 3 Zrotation Yrotation Xrotation
		JOINT RightUpLeg
		{
			OFFSET -1.800000 -1.400000 0.085000
			CHANNELS 3 Zrotation Yrotation Xrotation
			JOINT RightLeg
			{
				OFFSET -2.215000 -6.000000 0.000000
				CHANNELS 3 Zrotation Yrotation Xrotation
				JOINT RightFoot
				{
					OFFSET -2.500000 -6.900000 0.000000
					CHANNELS 3 Zrotation Yrotation Xrotation
					JOINT RightToeBase
					{
						OFFSET -0.200000 -0.500000 1.950000
						CHANNELS 3 Zrotation Yrotation Xrotation
						End Site
						{
							OFFSET 0.000000 0.000000 0.000000
						}
					}
				}
			}
		}
	}
	JOINT LowerBack
	{
		OFFSET 0.000000 0.000000 0.000000
		CHANNELS 3 Zrotation Yrotation Xrotation
		JOINT Spine
		{
			OFFSET -0.087000 1.940000 -0.288900
			CHANNELS 3 Zrotation Yrotation Xrotation
			JOINT Spine1
			{
				OFFSET 0.000000 1.950000 0.060000
				CHANNELS 3 Zrotation Yrotation Xrotation
				JOINT Neck
				{
					OFFSET 0.000000 0.000000 0.000000
					CHANNELS 3 Zrotation Yrotation Xrotation
					JOINT Neck1
					{
						OFFSET 0.000000 1.600000 0.340000
						CHANNELS 3 Zrotation Yrotation Xrotation
						JOINT Head
						{
							OFFSET 0.000000 1.667000 -0.240000
							CHANNELS 3 Zrotation Yrotation Xrotation
							End Site
							{
								OFFSET 0.000000 0.000000 0.000000
							}
						}
					}
				}
				JOINT LeftShoulder
				{
					OFFSET 0.000000 0.000000 0.000000
					CHANNELS 3 Zrotation Yrotation Xrotation
					JOINT LeftArm
					{
						OFFSET 2.700000 1.550000 -0.730000
						CHANNELS 3 Zrotation Yrotation Xrotation
						JOINT LeftForeArm
						{
							OFFSET 5.450000 0.000000 0.000000
							CHANNELS 3 Zrotation Yrotation Xrotation
							JOINT LeftHand
							{
								OFFSET 3.450000 0.000000 0.000000
								CHANNELS 3 Zrotation Yrotation Xrotation
								JOINT LeftHandIndex1
								{
									OFFSET 0.750000 0.000000 0.000000
									CHANNELS 3 Zrotation Yrotation Xrotation
									End Site
									{
										OFFSET 0.000000 0.000000 0.000000
									}
								}
							}
						}
					}
				}
				JOINT RightShoulder
				{
					OFFSET 0.000000 0.000000 0.000000
					CHANNELS 3 Zrotation Yrotation Xrotation
					JOINT RightArm
					{
						OFFSET -2.700000 1.550000 -0.730000
						CHANNELS 3 Zrotation Yrotation Xrotation
						JOINT RightForeArm
						{
							OFFSET -5.450000 0.000000 0.000000
							CHANNELS 3 Zrotation Yrotation Xrotation
							JOINT RightHand
							{
								OFFSET -3.450000 0.000000 0.000000
								CHANNELS 3 Zrotation Yrotation Xrotation
								JOINT RightHandIndex1
								{
									OFFSET -0.750000 0.000000 0.000000
									CHANNELS 3 Zrotation Yrotation Xrotation
									End Site
									{
										OFFSET 0.000000 0.000000 0.000000
									}
								}
							}
						}
					}
				}
			}
		}
	}
}
MOTION
Frames: 12
Frame Time: 0.016667
-0.556930 17.964550 -0.791540 -3.127968 24.494909 -6.904607 -15.560902 13.831063 3.049627 -3.501476 0.404289 -3.603977 -3.168141 5.644077 16.487514 -0.540404 4.373692 3.124672 0.490100 0.024360 0.602520 17.877616 -10.541385 2.806760 -4.853879 1.726863 -29.114969 0.556547 -3.330524 14.211786 -0.043670 -1.665760 3.863663 0.032980 -0.104500 0.076050 -2.974283 -2.800104 -7.406934 3.586953 -2.922023 13.137037 2.751857 -3.268807 14.202663 2.438579 2.964531 -10.729978 1.845810 -3.892984 42.031903 -0.672540 -1.016210 -18.459280 -9.783426 -2.999536 5.073553 -43.350360 14.467121 -16.059786 -78.833086 -25.094510 8.815285 -3.293933 3.119704 0.939810 -0.160180 0.165300 0.065590 5.880428 0.473969 6.492498 37.069082 -17.275693 -16.136352 81.744828 28.807139 11.340350 1.893700 -1.642563 -0.307310 0.261330 -0.079580 -0.458040 
-0.562290 17.855250 -0.735680 -1.604292 25.019841 -6.001133 -15.646429 13.757737 3.086749 -4.953493 0.595995 -3.171946 -2.982753 5.615957 16.487002 -0.509714 4.414126 3.123612 0.441610 -0.038120 0.539720 17.819563 -10.399922 2.797594 -6.923621 1.110057 -27.658774 1.778591 -3.003735 8.388074 0.001352 -1.569889 3.917953 0.005950 -0.061960 0.066920 -2.721580 -2.937586 -7.366454 0.687490 -2.064457 11.403152 3.805257 -2.694861 14.186513 2.013939 2.356976 -11.072005 0.515886 -3.957729 41.774984 0.502820 -2.311370 -16.838920 -9.179299 -3.580067 5.378886 -41.920874 13.269219 -14.415006 -79.709543 -24.450951 9.093747 -3.310027 3.151710 0.912330 -0.144690 0.113310 0.061800 6.159849 1.919917 7.018775 35.724106 -16.580675 -14.993591 82.506443 30.387844 13.151916 1.914108 -1.665255 -0.319980 0.255970 -0.042830 -0.441110 
-0.566700 17.751710 -0.694030 -0.183925 25.261043 -5.452300 -15.721892 13.704465 3.138032 -6.184088 0.806886 -2.625531 -2.931498 5.677465 16.739044 -0.425007 4.445219 3.130217 0.414750 -0.062260 0.504010 17.755967 -10.277426 2.831598 -8.852495 0.673850 -26.589067 2.502411 -2.807678 4.852011 -0.007773 -1.642774 3.917214 -0.026190 -0.056290 0.054300 -2.481697 -3.055948 -7.408688 -2.009595 -1.133797 10.802360 4.844769 -1.984702 13.529478 1.839253 2.031650 -11.660003 -0.277218 -4.204146 42.076156 0.857810 -3.112570 -15.589100 -9.576056 -4.873012 5.916947 -40.324471 13.019261 -13.414094 -81.406382 -23.733076 9.130817 -3.292608 3.171447 0.890400 -0.150680 0.103820 0.075510 6.952530 3.917519 7.705679 33.431019 -16.407024 -13.882985 84.391602 29.784384 13.358545 1.969416 -1.681440 -0.307320 0.242360 -0.050930 -0.417800 
-0.565760 17.657500 -0.668060 0.816244 25.935415 -5.129061 -15.756567 13.670622 3.181370 -7.077116 0.908071 -2.379589 -2.841135 5.779735 17.473099 -0.345140 4.527390 3.130745 0.366920 -0.099550 0.447520 17.718623 -10.241536 2.843318 -10.618972 0.330505 -26.166943 3.146857 -2.851454 3.910227 0.008321 -1.784144 3.893319 -0.054050 -0.005280 0.042650 -2.374653 -3.073198 -7.446015 -3.592880 -0.591310 10.714218 5.311425 -1.501207 12.520131 1.734931 1.746046 -11.915824 -0.836109 -4.729472 41.385493 0.710270 -4.166380 -13.443220 -10.266869 -5.664137 6.184929 -38.495826 12.711971 -12.176657 -83.221040 -24.239571 10.403937 -3.324208 3.189598 0.828390 -0.117580 0.063460 0.090870 7.859810 5.246445 8.049041 30.921051 -15.929664 -12.474968 86.097218 28.629534 13.215613 2.011919 -1.705273 -0.302760 0.249870 -0.041880 -0.380100 
-0.573900 17.594460 -0.651640 1.772253 26.624880 -4.698046 -15.793352 13.703772 3.252522 -7.893286 0.903534 -2.464301 -2.577865 5.826183 18.319762 -0.334995 4.636546 3.106060 0.301820 -0.187200 0.375490 17.670755 -10.268851 2.791400 -11.701217 0.122099 -26.468275 2.953230 -3.004399 5.072926 0.053347 -1.856240 3.870921 -0.089140 0.054980 0.043320 -2.257239 -3.140874 -7.452273 -5.354986 -0.046447 10.806566 6.258882 -1.107731 11.352116 1.507273 1.193841 -12.171720 -1.848451 -4.797695 40.916359 1.173900 -5.246220 -11.381730 -10.412792 -6.114784 6.472207 -38.162391 12.648818 -11.426985 -83.721016 -24.549546 11.064398 -3.366655 3.204782 0.807800 -0.084500 0.005380 0.087580 8.519872 6.458799 8.247531 28.778548 -14.844364 -11.200025 87.170465 27.137790 12.693275 2.027931 -1.714542 -0.329640 0.249930 0.008810 -0.368500 
-0.579060 17.571730 -0.641090 2.628666 27.302608 -4.283212 -15.810054 13.710329 3.317463 -8.467244 0.780192 -2.791775 -2.866944 6.014511 19.191737 -0.324062 4.751932 3.055115 0.266580 -0.236710 0.342260 17.643779 -10.342162 2.709866 -12.612832 -0.043113 -26.704992 2.734835 -3.243474 6.967865 0.079758 -1.938618 3.827640 -0.111460 0.079580 0.061050 -2.205745 -3.106851 -7.435077 -6.569260 0.464569 10.885917 6.761017 -0.695900 10.490687 1.421637 1.032530 -12.263384 -2.075988 -4.956414 40.632268 1.164510 -5.759900 -10.515630 -10.644221 -6.580173 6.685143 -38.468049 12.257975 -10.917228 -82.743928 -25.403658 11.784928 -3.410557 3.220630 0.789580 -0.061860 -0.025120 0.068470 8.957041 7.325962 8.186536 27.716243 -12.962836 -10.173672 86.798276 26.062458 12.220528 2.043557 -1.715544 -0.329560 0.232570 0.049560 -0.366160 
-0.591060 17.586670 -0.634060 2.845401 28.714418 -4.003153 -15.803982 13.738030 3.343505 -8.431942 0.481264 -3.498593 -2.882773 6.076688 19.950430 -0.349258 4.820438 3.043693 0.232590 -0.289070 0.319830 17.627417 -10.444671 2.653642 -13.134168 -0.073164 -26.515113 3.011656 -3.557122 8.934017 0.086715 -2.041481 3.786401 -0.128360 0.120510 0.060800 -2.233882 -3.044236 -7.432033 -6.645914 0.618859 11.182093 6.837517 -0.520587 9.819908 1.301610 0.851201 -12.307851 -2.378842 -5.229579 40.391037 1.570100 -6.474010 -10.493540 -10.835840 -7.068671 6.865071 -38.957957 11.824152 -10.639984 -81.383576 -26.478662 12.457560 -3.441853 3.183116 0.802300 -0.049360 -0.045040 0.065190 9.390892 8.075244 8.063032 27.855023 -11.153893 -9.706473 84.568389 25.622979 11.719312 2.054358 -1.670227 -0.360140 0.262550 0.080640 -0.365600 
-0.599440 17.624840 -0.625950 2.957194 30.212507 -3.685534 -15.789375 13.731432 3.365478 -8.599902 0.151072 -4.339635 -2.479842 5.973551 20.648921 -0.358154 4.785555 3.058667 0.229210 -0.297870 0.330750 17.622967 -10.561324 2.599855 -13.227441 -0.088430 -25.911686 3.280455 -3.817676 10.430103 0.075856 -2.134233 3.755926 -0.136650 0.117370 0.052450 -2.297673 -2.907068 -7.418406 -6.380503 0.769945 11.243481 6.504033 -0.295824 9.581064 1.299930 1.080000 -12.442067 -2.003630 -5.835455 40.508060 1.647600 -6.996360 -10.658930 -10.791655 -7.653057 6.940303 -39.552594 10.877248 -10.515580 -79.809191 -26.978088 12.568559 -3.438292 3.153875 0.809040 -0.057820 -0.039800 0.064790 9.309166 8.519394 8.210071 29.133874 -10.485164 -9.784567 83.581608 25.823467 11.679233 2.070696 -1.648638 -0.364450 0.273260 0.074440 -0.366590 
-0.596200 17.685910 -0.615150 2.300200 31.116223 -3.788818 -15.754742 13.737927 3.363675 -8.237725 -0.153683 -5.259336 -2.263007 5.888468 21.004272 -0.389846 4.720574 3.073005 0.215700 -0.303660 0.309920 17.631075 -10.698819 2.573008 -12.556128 0.131338 -25.178966 3.609109 -4.081414 12.094379 0.074952 -2.235717 3.731355 -0.137590 0.114800 0.040860 -2.422079 -2.717863 -7.428274 -4.828240 0.878558 11.522365 6.130918 -0.009823 9.323414 1.379948 1.023449 -12.502776 -2.099218 -6.509655 40.220266 1.322240 -7.634660 -10.869430 -10.921630 -7.984408 6.940194 -40.879773 10.104712 -10.551583 -77.612854 -27.911902 12.821758 -3.439772 3.132223 0.807630 -0.059120 -0.046720 0.061270 9.235996 8.933990 8.312852 30.447826 -9.810928 -10.013637 81.141065 27.245133 12.249784 2.072235 -1.622825 -0.369840 0.278300 0.084250 -0.365650 
-0.601970 17.759560 -0.605590 1.997253 32.268132 -3.696559 -15.753896 13.764282 3.398999 -8.576367 -0.627757 -6.560892 -1.329549 5.617755 22.041449 -0.452015 4.697972 3.061039 0.198600 -0.328210 0.296590 17.617675 -10.775578 2.510689 -11.849271 0.240202 -24.049407 3.699240 -4.294736 13.434006 0.079966 -2.341914 3.692558 -0.134620 0.126990 0.038560 -2.443232 -2.716274 -7.401135 -4.238761 0.901519 11.631545 6.532034 0.028870 9.260859 1.336892 0.873048 -12.339125 -2.380911 -6.745137 39.999681 1.614280 -8.157580 -11.366750 -10.979672 -8.072379 6.827147 -42.176388 9.071434 -10.395631 -76.015961 -28.865739 13.223934 -3.466787 3.115735 0.815390 -0.053240 -0.065890 0.039630 9.401615 9.162589 8.126048 30.122067 -8.650322 -9.615627 80.979629 27.536349 12.667108 2.064366 -1.605288 -0.389060 0.289060 0.118430 -0.375580 
-0.624220 17.835680 -0.606560 1.725819 33.050843 -3.699187 -15.743344 13.769661 3.464120 -8.663114 -1.475841 -8.716977 -1.312296 5.767395 24.358237 -0.458891 4.857508 3.003500 0.170870 -0.360230 0.278680 17.608240 -10.843935 2.475740 -10.896513 0.421333 -23.319577 3.734844 -4.537453 15.218123 0.075237 -2.451405 3.667012 -0.143330 0.158600 0.028180 -2.482311 -2.696386 -7.440842 -3.573806 1.045580 12.552231 6.653849 0.248952 8.776006 1.276842 0.827847 -12.330928 -2.439842 -7.095742 39.667848 2.110240 -8.732690 -11.703780 -11.309708 -8.459800 6.858205 -42.846393 8.596879 -10.470111 -74.902248 -30.031292 13.757200 -3.489622 3.072272 0.824270 -0.045100 -0.077710 0.038130 9.812387 9.665200 8.072183 29.778824 -7.833122 -9.399968 81.487803 27.836670 13.127936 2.067913 -1.578273 -0.416010 0.324310 0.138500 -0.373000 
-0.648120 17.904260 -0.623870 1.222717 33.085153 -3.885077 -15.712414 13.715584 3.548554 -8.252029 -2.579067 -11.558230 -2.086726 6.273952 27.220665 -0.436248 5.130423 2.889608 0.168880 -0.363050 0.301450 17.622088 -10.908432 2.467978 -9.653039 0.756333 -23.040338 3.599622 -4.795890 17.608100 0.050257 -2.586701 3.621365 -0.144720 0.146120 0.017470 -2.576702 -2.566794 -7.529118 -2.191421 1.381182 14.033004 6.353219 0.789812 8.153970 1.454272 0.974847 -12.371658 -2.040148 -7.737069 39.044035 1.383160 -8.736190 -12.506710 -11.314066 -8.737051 6.795096 -43.647415 8.065373 -10.702122 -73.185614 -30.911323 13.856589 -3.489475 3.036564 0.836230 -0.053530 -0.068480 0.028670 9.346678 10.033279 8.093887 30.502640 -6.891410 -9.477276 81.884478 28.545585 13.742987 2.077212 -1.565673 -0.426050 0.338970 0.134530 -0.384540 
